<?xml version="1.0" encoding="UTF-8" standalone="no"?>
<svg
   id="icons"
   viewBox="0 0 512 512"
   xmlns="http://www.w3.org/2000/svg">
  <path
     style="fill:#000000;fill-opacity:1;stroke:#000000;stroke-width:0;stroke-linecap:round;stroke-linejoin:round;stroke-dasharray:none"
     d="M 222.59494,373.21146 H 41.28038 v -39.74033 q 23.03723,-17.98944 41.268122,-34.01642 18.396628,-16.02696 32.318418,-30.41852 18.06515,-18.80715 26.18619,-33.03517 8.12103,-14.22802 8.12103,-29.27374 0,-17.00821 -10.27559,-26.00293 -10.2756,-9.15827 -28.67223,-9.15827 -9.44693,0 -17.899429,2.28957 -8.286765,2.28957 -16.905018,5.88746 -8.452503,3.76142 -14.418972,7.6864 -5.96648,3.92497 -8.949715,5.88745 h -4.806332 v -53.15065 q 10.441339,-4.9062 32.649876,-9.97597 22.20855,-5.23329 42.75975,-5.23329 43.91989,0 66.4599,19.29777 22.70575,19.29779 22.70575,54.29543 0,21.58734 -10.27559,42.35698 -10.2756,20.6061 -34.1415,44.31946 -14.9162,14.55511 -29.0037,26.00293 -14.08751,11.2843 -20.38545,16.02698 h 104.57905 z"
     id="path2403" />
  <path
     style="fill:#000000;fill-opacity:1;stroke:#000000;stroke-width:0;stroke-linecap:round;stroke-linejoin:round;stroke-dasharray:none"
     d="m 478.32471,251.7009 q 0,34.01642 -15.08194,61.00059 -15.08192,26.82063 -38.11914,41.21219 -19.22532,12.26554 -41.93107,15.86342 -22.54001,3.43436 -48.06327,3.43436 H 257.89658 V 129.69973 h 76.56976 q 26.02047,0 48.72622,3.27081 22.70575,3.27081 42.594,15.86342 24.36311,15.3728 38.45062,41.53928 14.08753,26.00293 14.08753,61.32766 z m -63.64242,-0.49061 q 0,-24.04045 -8.4525,-41.04866 -8.28677,-17.17175 -25.68899,-26.82064 -12.5959,-6.86869 -26.51767,-7.52286 -13.75605,-0.65416 -32.98135,-0.65416 h -1.16015 v 152.4197 h 1.16015 q 20.88267,0 35.13591,-0.65416 14.41899,-0.8177 27.34635,-8.83118 15.24765,-9.48535 23.20296,-26.16648 7.95529,-16.68112 7.95529,-40.72156 z"
     id="path2405" />
</svg>
