<?xml version="1.0" encoding="iso-8859-1"?>
<!-- Uploaded to: SVG Repo, www.svgrepo.com, Generator: SVG Repo Mixer Tools -->
<!DOCTYPE svg PUBLIC "-//W3C//DTD SVG 1.1//EN" "http://www.w3.org/Graphics/SVG/1.1/DTD/svg11.dtd">
<svg fill="#000000" height="800px" width="800px" version="1.1" id="Capa_1" xmlns="http://www.w3.org/2000/svg" xmlns:xlink="http://www.w3.org/1999/xlink" 
	 viewBox="0 0 313.898 313.898" xml:space="preserve">
<g>
	<path d="M115.341,260.657l-78.625,12.436l29.792-29.792c-10.972-1.174-20.972-6.236-28.347-14.08L7.759,259.623
		c-8.124,8.124-10.079,20.46-4.863,30.697c5.234,10.276,16.392,15.906,27.69,14.114l90.588-14.327
		c5.552-0.879,10.588-3.445,14.563-7.42l35.452-35.451c1.141-1.141,2.159-2.372,3.059-3.67h-41.816L115.341,260.657z"/>
	<path d="M101.534,146.551l-0.494-0.494l-40.711,40.711c-4.49,4.49-5.833,11.241-3.403,17.107c2.43,5.866,8.154,9.691,14.503,9.691
		h97.121l-0.697-0.698l-30-30h-30.21l15.105-15.105L101.534,146.551z"/>
	<path d="M186.386,104.124l43.517-43.517c11.93-11.93,31.235-11.93,43.167,0c11.901,11.901,11.901,31.267,0,43.168l-43.516,43.517
		l21.213,21.213l0.494,0.494l43.516-43.516c23.871-23.87,23.871-62.71,0-86.581c-23.87-23.869-62.71-23.87-86.581,0L164.68,82.418
		l0.494,0.494L186.386,104.124z"/>
	<circle cx="251.943" cy="81.796" r="14.156"/>
	<path d="M309.505,269.67L53.363,13.527c-2.929-2.929-6.768-4.393-10.607-4.393s-7.678,1.464-10.607,4.393
		c-5.858,5.858-5.858,15.355,0,21.213l256.142,256.142c2.929,2.929,6.768,4.394,10.607,4.394s7.678-1.465,10.607-4.394
		C315.363,285.025,315.363,275.527,309.505,269.67z"/>
</g>
</svg>